# xmcd
#
# Track frame offsets: 
#        150
#        19371
#        32784
#        55603
#        71100
#        95202
#        110915
#        128620
#        143171
#        162168
#        177906
#        198035
#        217205
#
# Disc length: 3179 seconds
#
# Revision: 3
# Processed by: cddbd v1.5.2PL0 Copyright (c) Steve Scherf et al.
# Submitted via: ExactAudioCopy v0.99pb5
#
DISCID=c30c690d
DTITLE=Various Artist - Country Strong (Original Motion Picture Soundtrack)
DYEAR=2010
DGENRE=Country
TTITLE0=Gwyneth Paltrow - Country Strong
TTITLE1=Chris Young and Patty Loveless - Love Don't Let Me Down
TTITLE2=Sara Evans - A Little Bit Stronger
TTITLE3=Garrett Hedlund - Chances Are
TTITLE4=Lee Ann Womack - Liars Lie
TTITLE5=Ronnie Dunn - She's Actin' Single (I'm Drinkin' Double)
TTITLE6=Gwyneth Paltrow - Shake That Thing
TTITLE7=Hank Williams, Jr. - Thirsty
TTITLE8=Faith Hill - Give In to Me
TTITLE9=Trace Adkins - Timing Is Everything
TTITLE10=Leighton Meester - Words I Couldn't Say
TTITLE11=Gwyneth Paltrow - Coming Home
TTITLE12=Tim McGraw and Gwyneth Paltrow - Me and Tennessee
EXTD=YEAR: 2010
EXTT0=
EXTT1=
EXTT2=
EXTT3=
EXTT4=
EXTT5=
EXTT6=
EXTT7=
EXTT8=
EXTT9=
EXTT10=
EXTT11=
EXTT12=
PLAYORDER=
